<?xml version="1.0" encoding="UTF-8"?>
<svg id="Layer_2" data-name="Layer 2" xmlns="http://www.w3.org/2000/svg" viewBox="0 0 764.11 764.11">
  <g id="Layer_1-2" data-name="Layer 1">
    <g fill="#10B981">
      <path d="M734.09,233.34c-19.24-45.49-46.79-86.35-81.88-121.44-35.09-35.09-75.95-62.63-121.44-81.88C483.67,10.1,433.63,0,382.06,0s-101.61,10.1-148.71,30.02c-45.5,19.24-86.35,46.79-121.44,81.88-35.09,35.09-62.63,75.95-81.88,121.44C10.1,280.44,0,330.48,0,382.06s10.1,101.61,30.02,148.71c19.24,45.5,46.79,86.35,81.88,121.44,35.09,35.09,75.95,62.63,121.44,81.88,47.1,19.92,97.14,30.02,148.71,30.02s101.61-10.1,148.71-30.02c45.5-19.24,86.35-46.79,121.44-81.88,35.09-35.09,62.63-75.95,81.88-121.44,19.92-47.1,30.02-97.14,30.02-148.71s-10.1-101.61-30.02-148.71ZM514.99,696.79c-42.08,17.8-86.81,26.82-132.94,26.82s-90.85-9.03-132.94-26.82c-40.67-17.2-77.2-41.83-108.58-73.21-6.63-6.63-12.94-13.5-18.96-20.58,80.55,5.26,149.05-22.68,199.5-100.36l77.85,22.83c2.18.64,4.4,1.13,6.62,1.63,8.28,1.86,15.88,7.53,23,15.84,4.16,4.85,7.69,10.21,10.71,15.85l51.88,96.82c4.16,7.77,10.59,14.17,18.58,17.89,24.89,11.58,51.75-6.11,51.45-31.55-.07-5.55-1.59-10.98-4.12-15.92l-66.42-129.28c-13.69-21.53-32.83-34.67-61-44l-46.33-14.5,29.33-57.67,50.67,26.17c14.2,5.25,28.6,6.16,43.17,3.15,17.24-3.57,32.91-12.53,45.24-25.1l57.76-58.88c13.05-21.42,2.65-34.46-13.83-45.33-9.34-4.61-18.91-2.19-28.67,6.33l-43.33,43.83c-17.84,14.01-40.05,9.96-65.33-6.83-20.35-17.09-40.32-31.99-59.5-42.33-109.84-63.62-189.01-29.18-254.88,47.78-3.64,4.25-6.67,9-8.71,14.21-14.7,37.66,33.47,49.86,54.64,27.45l15.96-15.96c4.42-4.42,8.61-9.05,12.71-13.76,23.73-27.29,55.28-31.82,94.11-15.17l-69.06,133.69c-4.03,7.8-8.6,15.32-13.87,22.34-34.4,45.85-81.85,56.74-153.89,51.3-3-6.06-5.84-12.21-8.49-18.47-17.8-42.08-26.82-86.81-26.82-132.94s9.03-90.85,26.82-132.94c17.2-40.67,41.83-77.2,73.21-108.58,31.38-31.38,67.91-56.01,108.58-73.21,42.08-17.8,86.81-26.82,132.94-26.82s90.85,9.03,132.94,26.82c40.67,17.2,77.2,41.83,108.58,73.21,31.38,31.38,56.01,67.91,73.21,108.58,17.8,42.08,26.82,86.81,26.82,132.94s-9.03,90.85-26.82,132.94c-17.2,40.67-41.83,77.2-73.21,108.58-31.38,31.38-67.91,56.01-108.58,73.21Z"/>
      <circle cx="439.97" cy="187.63" r="77.16" transform="translate(-3.81 366.06) rotate(-45)"/>
    </g>
  </g>
</svg>
